# xmcd CD database file
# Copyright (C) 1993-1996 Ti Kan
#
# Track frame offsets:
#	150
#	14240
#	29310
#	40450
#	50062
#	63770
#
# Disc length: 1044 seconds
#
# Revision: 1
# Processed by: cddbd v1.4b41PL1 Copyright (c) Steve Scherf et al.
# Submitted via: CDValet v3.01 - Copyright (c) 1997 Greg Leichner
#
DISCID=51041206
DTITLE=George Jones - ...Nothin' Like George Jones
DYEAR=1900
DGENRE=
TTITLE0=The Grand Tour
TTITLE1=You Always Look Your Best (Here In My Arms)
TTITLE2=She's My Rock
TTITLE3=Kiss An Angel Good Morning
TTITLE4=These Days (I Barely Get By)
TTITLE5=He Stopped Loving Her Today
EXTD=
EXTT0=
EXTT1=
EXTT2=
EXTT3=
EXTT4=
EXTT5=
PLAYORDER=
